<mxfile host="65bd71144e">
    <diagram id="0YV6zlQmTSQ1P5n79otT" name="Page-1">
        <mxGraphModel dx="1072" dy="308" grid="1" gridSize="10" guides="1" tooltips="1" connect="1" arrows="1" fold="1" page="1" pageScale="1" pageWidth="850" pageHeight="1100" math="0" shadow="0">
            <root>
                <mxCell id="0"/>
                <mxCell id="1" parent="0"/>
                <mxCell id="7" style="edgeStyle=none;html=1;exitX=0;exitY=1;exitDx=0;exitDy=0;entryX=1.007;entryY=0.323;entryDx=0;entryDy=0;entryPerimeter=0;fontSize=18;" edge="1" parent="1" source="2" target="3">
                    <mxGeometry relative="1" as="geometry"/>
                </mxCell>
                <mxCell id="9" style="edgeStyle=none;html=1;exitX=1;exitY=1;exitDx=0;exitDy=0;fontSize=18;" edge="1" parent="1" source="2" target="4">
                    <mxGeometry relative="1" as="geometry"/>
                </mxCell>
                <mxCell id="2" value="&lt;font size=&quot;3&quot;&gt;4&lt;/font&gt;" style="ellipse;whiteSpace=wrap;html=1;aspect=fixed;" vertex="1" parent="1">
                    <mxGeometry x="390" y="50" width="60" height="60" as="geometry"/>
                </mxCell>
                <mxCell id="8" style="edgeStyle=none;html=1;exitX=0;exitY=1;exitDx=0;exitDy=0;entryX=1;entryY=0;entryDx=0;entryDy=0;fontSize=18;" edge="1" parent="1" source="3" target="5">
                    <mxGeometry relative="1" as="geometry"/>
                </mxCell>
                <mxCell id="3" value="&lt;font size=&quot;3&quot;&gt;3&lt;/font&gt;" style="ellipse;whiteSpace=wrap;html=1;aspect=fixed;" vertex="1" parent="1">
                    <mxGeometry x="280" y="120" width="60" height="60" as="geometry"/>
                </mxCell>
                <mxCell id="10" style="edgeStyle=none;html=1;exitX=1;exitY=1;exitDx=0;exitDy=0;fontSize=18;" edge="1" parent="1" source="4" target="6">
                    <mxGeometry relative="1" as="geometry"/>
                </mxCell>
                <mxCell id="4" value="&lt;font size=&quot;3&quot;&gt;7&lt;/font&gt;" style="ellipse;whiteSpace=wrap;html=1;aspect=fixed;" vertex="1" parent="1">
                    <mxGeometry x="490" y="120" width="60" height="60" as="geometry"/>
                </mxCell>
                <mxCell id="5" value="&lt;font size=&quot;3&quot;&gt;1&lt;/font&gt;" style="ellipse;whiteSpace=wrap;html=1;aspect=fixed;" vertex="1" parent="1">
                    <mxGeometry x="160" y="220" width="60" height="60" as="geometry"/>
                </mxCell>
                <mxCell id="6" value="&lt;font size=&quot;3&quot;&gt;10&lt;/font&gt;" style="ellipse;whiteSpace=wrap;html=1;aspect=fixed;" vertex="1" parent="1">
                    <mxGeometry x="600" y="220" width="60" height="60" as="geometry"/>
                </mxCell>
                <mxCell id="11" style="edgeStyle=none;html=1;exitX=0;exitY=1;exitDx=0;exitDy=0;entryX=0.75;entryY=0;entryDx=0;entryDy=0;fontSize=18;" edge="1" parent="1" target="31">
                    <mxGeometry relative="1" as="geometry">
                        <mxPoint x="398.78679656440363" y="371.21320343559637" as="sourcePoint"/>
                        <mxPoint x="340.4200000000001" y="409.38" as="targetPoint"/>
                    </mxGeometry>
                </mxCell>
                <mxCell id="12" style="edgeStyle=none;html=1;exitX=1;exitY=1;exitDx=0;exitDy=0;fontSize=18;entryX=0.5;entryY=0;entryDx=0;entryDy=0;" edge="1" parent="1" target="37">
                    <mxGeometry relative="1" as="geometry">
                        <mxPoint x="441.21320343559637" y="371.21320343559637" as="sourcePoint"/>
                        <mxPoint x="494" y="404" as="targetPoint"/>
                    </mxGeometry>
                </mxCell>
                <mxCell id="14" style="edgeStyle=none;html=1;exitX=0;exitY=1;exitDx=0;exitDy=0;entryX=1;entryY=0;entryDx=0;entryDy=0;fontSize=18;" edge="1" parent="1">
                    <mxGeometry relative="1" as="geometry">
                        <mxPoint x="288.78679656440363" y="441.21320343559637" as="sourcePoint"/>
                        <mxPoint x="211.21320343559637" y="498.78679656440363" as="targetPoint"/>
                    </mxGeometry>
                </mxCell>
                <mxCell id="16" style="edgeStyle=none;html=1;exitX=1;exitY=1;exitDx=0;exitDy=0;fontSize=18;" edge="1" parent="1">
                    <mxGeometry relative="1" as="geometry">
                        <mxPoint x="541.2132034355964" y="441.21320343559637" as="sourcePoint"/>
                        <mxPoint x="607.5495918231502" y="500.10077457051966" as="targetPoint"/>
                    </mxGeometry>
                </mxCell>
                <mxCell id="26" value="" style="group" vertex="1" connectable="0" parent="1">
                    <mxGeometry x="355" y="320" width="130" height="50" as="geometry"/>
                </mxCell>
                <mxCell id="20" value="" style="rounded=0;whiteSpace=wrap;html=1;fontSize=18;" vertex="1" parent="26">
                    <mxGeometry x="10" width="120" height="50" as="geometry"/>
                </mxCell>
                <mxCell id="23" value="100" style="rounded=0;whiteSpace=wrap;html=1;fontSize=18;" vertex="1" parent="26">
                    <mxGeometry width="40" height="50" as="geometry"/>
                </mxCell>
                <mxCell id="24" value="104" style="rounded=0;whiteSpace=wrap;html=1;fontSize=18;" vertex="1" parent="26">
                    <mxGeometry x="90" width="40" height="50" as="geometry"/>
                </mxCell>
                <mxCell id="25" value="4" style="rounded=0;whiteSpace=wrap;html=1;fontSize=18;fillColor=#000099;" vertex="1" parent="26">
                    <mxGeometry x="40" width="50" height="50" as="geometry"/>
                </mxCell>
                <mxCell id="27" value="" style="group" vertex="1" connectable="0" parent="1">
                    <mxGeometry x="250" y="410" width="130" height="50" as="geometry"/>
                </mxCell>
                <mxCell id="28" value="" style="rounded=0;whiteSpace=wrap;html=1;fontSize=18;" vertex="1" parent="27">
                    <mxGeometry x="10" width="120" height="50" as="geometry"/>
                </mxCell>
                <mxCell id="29" value="108" style="rounded=0;whiteSpace=wrap;html=1;fontSize=18;" vertex="1" parent="27">
                    <mxGeometry width="40" height="50" as="geometry"/>
                </mxCell>
                <mxCell id="30" value="112" style="rounded=0;whiteSpace=wrap;html=1;fontSize=18;" vertex="1" parent="27">
                    <mxGeometry x="90" width="40" height="50" as="geometry"/>
                </mxCell>
                <mxCell id="31" value="3" style="rounded=0;whiteSpace=wrap;html=1;fontSize=18;fillColor=#000099;" vertex="1" parent="27">
                    <mxGeometry x="40" width="50" height="50" as="geometry"/>
                </mxCell>
                <mxCell id="33" value="" style="group" vertex="1" connectable="0" parent="1">
                    <mxGeometry x="440" y="410" width="130" height="50" as="geometry"/>
                </mxCell>
                <mxCell id="34" value="" style="rounded=0;whiteSpace=wrap;html=1;fontSize=18;" vertex="1" parent="33">
                    <mxGeometry x="10" width="120" height="50" as="geometry"/>
                </mxCell>
                <mxCell id="35" value="116" style="rounded=0;whiteSpace=wrap;html=1;fontSize=18;" vertex="1" parent="33">
                    <mxGeometry width="40" height="50" as="geometry"/>
                </mxCell>
                <mxCell id="36" value="120" style="rounded=0;whiteSpace=wrap;html=1;fontSize=18;" vertex="1" parent="33">
                    <mxGeometry x="90" width="40" height="50" as="geometry"/>
                </mxCell>
                <mxCell id="37" value="7" style="rounded=0;whiteSpace=wrap;html=1;fontSize=18;fillColor=#000099;" vertex="1" parent="33">
                    <mxGeometry x="40" width="50" height="50" as="geometry"/>
                </mxCell>
                <mxCell id="38" value="" style="group" vertex="1" connectable="0" parent="1">
                    <mxGeometry x="150" y="500" width="130" height="50" as="geometry"/>
                </mxCell>
                <mxCell id="39" value="" style="rounded=0;whiteSpace=wrap;html=1;fontSize=18;" vertex="1" parent="38">
                    <mxGeometry x="10" width="120" height="50" as="geometry"/>
                </mxCell>
                <mxCell id="40" value="null" style="rounded=0;whiteSpace=wrap;html=1;fontSize=18;" vertex="1" parent="38">
                    <mxGeometry width="40" height="50" as="geometry"/>
                </mxCell>
                <mxCell id="41" value="null" style="rounded=0;whiteSpace=wrap;html=1;fontSize=18;" vertex="1" parent="38">
                    <mxGeometry x="90" width="40" height="50" as="geometry"/>
                </mxCell>
                <mxCell id="42" value="1" style="rounded=0;whiteSpace=wrap;html=1;fontSize=18;shadow=1;fillColor=#000099;" vertex="1" parent="38">
                    <mxGeometry x="40" width="50" height="50" as="geometry"/>
                </mxCell>
                <mxCell id="43" value="" style="group" vertex="1" connectable="0" parent="1">
                    <mxGeometry x="550" y="500" width="130" height="50" as="geometry"/>
                </mxCell>
                <mxCell id="44" value="" style="rounded=0;whiteSpace=wrap;html=1;fontSize=18;" vertex="1" parent="43">
                    <mxGeometry x="10" width="120" height="50" as="geometry"/>
                </mxCell>
                <mxCell id="45" value="null" style="rounded=0;whiteSpace=wrap;html=1;fontSize=18;" vertex="1" parent="43">
                    <mxGeometry width="40" height="50" as="geometry"/>
                </mxCell>
                <mxCell id="46" value="null" style="rounded=0;whiteSpace=wrap;html=1;fontSize=18;" vertex="1" parent="43">
                    <mxGeometry x="90" width="40" height="50" as="geometry"/>
                </mxCell>
                <mxCell id="47" value="10" style="rounded=0;whiteSpace=wrap;html=1;fontSize=18;fillColor=#000099;" vertex="1" parent="43">
                    <mxGeometry x="40" width="50" height="50" as="geometry"/>
                </mxCell>
                <mxCell id="48" value="linked list representation" style="text;html=1;align=center;verticalAlign=middle;resizable=0;points=[];autosize=1;strokeColor=none;fillColor=none;fontSize=18;shadow=1;" vertex="1" parent="1">
                    <mxGeometry x="505" y="325" width="220" height="40" as="geometry"/>
                </mxCell>
                <mxCell id="49" value="Diagram representation" style="text;html=1;align=center;verticalAlign=middle;resizable=0;points=[];autosize=1;strokeColor=none;fillColor=none;fontSize=18;shadow=1;" vertex="1" parent="1">
                    <mxGeometry x="320" width="210" height="40" as="geometry"/>
                </mxCell>
            </root>
        </mxGraphModel>
    </diagram>
</mxfile>
